; NON-PLATED HOLES START AT T1
; THROUGH (PLATED) HOLES START AT T100
M48
INCH
T100C0.039370
T101C0.098425
T102C0.030000
T103C0.038000
%
T100
X019283Y004791
X019283Y006791
X019283Y007791
X019283Y003791
X019283Y005791
X019283Y002791
T101
X024583Y003041
X024583Y007541
T102
X026283Y010791
X027283Y010791
T103
X017283Y016786
X022283Y016786
X024283Y010791
X016283Y010791
X011283Y010791
X007283Y016786
X023283Y010791
X015283Y016786
X014283Y016786
X011283Y016786
X012283Y016786
X017283Y010791
X023283Y016786
X006283Y016786
X007283Y010791
X012283Y010791
X009283Y016786
X018283Y010791
X019283Y016786
X008283Y016786
X005283Y010791
X006283Y010791
X021283Y016786
X013283Y010791
X021283Y010791
X022283Y010791
X015283Y010791
X016283Y016786
X024283Y016786
X014283Y010791
X020283Y010791
X018283Y016786
X020283Y016786
X010283Y016786
X013283Y016786
X010283Y010791
X019283Y010791
X008283Y010791
X009283Y010791
X005283Y016786
T00
M30
