G04 MADE WITH FRITZING*
G04 WWW.FRITZING.ORG*
G04 DOUBLE SIDED*
G04 HOLES PLATED*
G04 CONTOUR ON CENTER OF CONTOUR VECTOR*
%ASAXBY*%
%FSLAX23Y23*%
%MOIN*%
%OFA0B0*%
%SFA1.0B1.0*%
%ADD10C,0.076000*%
%ADD11C,0.138425*%
%ADD12C,0.078000*%
%ADD13R,0.075000X0.075000*%
%ADD14R,0.062992X0.074803*%
%ADD15C,0.024000*%
%LNCOPPER1*%
G90*
G70*
G54D10*
X1928Y279D03*
X1928Y379D03*
X1928Y479D03*
X1928Y579D03*
X1928Y679D03*
X1928Y779D03*
G54D11*
X2458Y754D03*
X2458Y304D03*
G54D12*
X528Y1079D03*
X528Y1679D03*
X628Y1079D03*
X628Y1679D03*
X728Y1079D03*
X728Y1679D03*
X828Y1079D03*
X828Y1679D03*
X928Y1079D03*
X928Y1679D03*
X1028Y1079D03*
X1028Y1679D03*
X1128Y1079D03*
X1128Y1679D03*
X1228Y1079D03*
X1228Y1679D03*
X1328Y1079D03*
X1328Y1679D03*
X1428Y1079D03*
X1428Y1679D03*
X1528Y1079D03*
X1528Y1679D03*
X1628Y1079D03*
X1628Y1679D03*
X1728Y1079D03*
X1728Y1679D03*
X1828Y1079D03*
X1828Y1679D03*
X1928Y1079D03*
X1928Y1679D03*
X2028Y1079D03*
X2028Y1679D03*
X2128Y1079D03*
X2128Y1679D03*
X2228Y1079D03*
X2228Y1679D03*
X2328Y1079D03*
X2328Y1679D03*
X2428Y1079D03*
X2428Y1679D03*
G54D13*
X528Y1079D03*
G54D14*
X1928Y1979D03*
X1806Y1979D03*
G54D15*
X429Y379D02*
X1429Y379D01*
D02*
X1928Y1179D02*
X429Y1179D01*
D02*
X429Y1179D02*
X429Y379D01*
D02*
X1429Y379D02*
X1898Y379D01*
D02*
X1928Y1109D02*
X1928Y1179D01*
D02*
X1827Y877D02*
X1829Y779D01*
D02*
X1829Y779D02*
X1829Y478D01*
D02*
X1829Y478D02*
X1898Y479D01*
D02*
X1828Y1049D02*
X1827Y877D01*
D02*
X1928Y1947D02*
X1928Y1709D01*
D02*
X1658Y1979D02*
X1780Y1979D01*
D02*
X2328Y878D02*
X2229Y878D01*
D02*
X3029Y1778D02*
X2027Y1778D01*
D02*
X2027Y1778D02*
X2028Y1709D01*
D02*
X2629Y180D02*
X3029Y180D01*
D02*
X2328Y180D02*
X2629Y180D01*
D02*
X1928Y248D02*
X1928Y180D01*
D02*
X1928Y180D02*
X2328Y180D01*
D02*
X3029Y180D02*
X3029Y1778D01*
D02*
X2229Y878D02*
X1928Y878D01*
D02*
X2228Y1049D02*
X2229Y878D01*
D02*
X1928Y878D02*
X1928Y810D01*
D02*
X2728Y580D02*
X1959Y579D01*
D02*
X2728Y1080D02*
X2728Y580D01*
D02*
X2728Y580D02*
X2927Y580D01*
D02*
X2927Y1279D02*
X2728Y1279D01*
D02*
X2927Y580D02*
X2927Y1279D01*
D02*
X2728Y1279D02*
X2325Y1276D01*
D02*
X2325Y1276D02*
X2328Y1109D01*
D02*
X2728Y1080D02*
X2728Y878D01*
D02*
X429Y1980D02*
X1378Y1979D01*
D02*
X429Y1279D02*
X429Y1980D01*
D02*
X1729Y1279D02*
X429Y1279D01*
D02*
X2325Y1276D02*
X1729Y1279D01*
D02*
X2728Y878D02*
X2728Y580D01*
D02*
X2629Y1080D02*
X2629Y878D01*
D02*
X2629Y878D02*
X2328Y878D01*
D02*
X2229Y878D02*
X2629Y878D01*
D02*
X2629Y878D02*
X2629Y1080D01*
G36*
X1593Y1916D02*
X1593Y2042D01*
X1664Y2042D01*
X1664Y1916D01*
X1593Y1916D01*
G37*
D02*
G36*
X1372Y1916D02*
X1372Y2042D01*
X1443Y2042D01*
X1443Y1916D01*
X1372Y1916D01*
G37*
D02*
G04 End of Copper1*
M02*