G04 MADE WITH FRITZING*
G04 WWW.FRITZING.ORG*
G04 DOUBLE SIDED*
G04 HOLES PLATED*
G04 CONTOUR ON CENTER OF CONTOUR VECTOR*
%ASAXBY*%
%FSLAX23Y23*%
%MOIN*%
%OFA0B0*%
%SFA1.0B1.0*%
%ADD10C,0.076000*%
%ADD11C,0.138425*%
%ADD12C,0.078000*%
%ADD13C,0.070000*%
%ADD14R,0.075000X0.075000*%
%ADD15R,0.001000X0.001000*%
%LNCOPPER0*%
G90*
G70*
G54D10*
X1928Y279D03*
X1928Y379D03*
X1928Y479D03*
X1928Y579D03*
X1928Y679D03*
X1928Y779D03*
G54D11*
X2458Y754D03*
X2458Y304D03*
G54D12*
X528Y1079D03*
X528Y1679D03*
X628Y1079D03*
X628Y1679D03*
X728Y1079D03*
X728Y1679D03*
X828Y1079D03*
X828Y1679D03*
X928Y1079D03*
X928Y1679D03*
X1028Y1079D03*
X1028Y1679D03*
X1128Y1079D03*
X1128Y1679D03*
X1228Y1079D03*
X1228Y1679D03*
X1328Y1079D03*
X1328Y1679D03*
X1428Y1079D03*
X1428Y1679D03*
X1528Y1079D03*
X1528Y1679D03*
X1628Y1079D03*
X1628Y1679D03*
X1728Y1079D03*
X1728Y1679D03*
X1828Y1079D03*
X1828Y1679D03*
X1928Y1079D03*
X1928Y1679D03*
X2028Y1079D03*
X2028Y1679D03*
X2128Y1079D03*
X2128Y1679D03*
X2228Y1079D03*
X2228Y1679D03*
X2328Y1079D03*
X2328Y1679D03*
X2428Y1079D03*
X2428Y1679D03*
G54D13*
X2628Y1079D03*
X2728Y1079D03*
G54D14*
X528Y1079D03*
G54D15*
X2623Y1114D02*
X2632Y1114D01*
X2723Y1114D02*
X2732Y1114D01*
X2619Y1113D02*
X2637Y1113D01*
X2718Y1113D02*
X2737Y1113D01*
X2616Y1112D02*
X2639Y1112D01*
X2716Y1112D02*
X2739Y1112D01*
X2613Y1111D02*
X2642Y1111D01*
X2713Y1111D02*
X2742Y1111D01*
X2611Y1110D02*
X2644Y1110D01*
X2711Y1110D02*
X2744Y1110D01*
X2610Y1109D02*
X2646Y1109D01*
X2710Y1109D02*
X2746Y1109D01*
X2608Y1108D02*
X2647Y1108D01*
X2708Y1108D02*
X2747Y1108D01*
X2607Y1107D02*
X2649Y1107D01*
X2707Y1107D02*
X2749Y1107D01*
X2605Y1106D02*
X2650Y1106D01*
X2705Y1106D02*
X2750Y1106D01*
X2604Y1105D02*
X2651Y1105D01*
X2704Y1105D02*
X2751Y1105D01*
X2603Y1104D02*
X2652Y1104D01*
X2703Y1104D02*
X2752Y1104D01*
X2602Y1103D02*
X2653Y1103D01*
X2702Y1103D02*
X2753Y1103D01*
X2601Y1102D02*
X2654Y1102D01*
X2701Y1102D02*
X2754Y1102D01*
X2601Y1101D02*
X2655Y1101D01*
X2701Y1101D02*
X2755Y1101D01*
X2600Y1100D02*
X2655Y1100D01*
X2700Y1100D02*
X2755Y1100D01*
X2599Y1099D02*
X2656Y1099D01*
X2699Y1099D02*
X2756Y1099D01*
X2599Y1098D02*
X2657Y1098D01*
X2699Y1098D02*
X2757Y1098D01*
X2598Y1097D02*
X2657Y1097D01*
X2698Y1097D02*
X2757Y1097D01*
X2597Y1096D02*
X2658Y1096D01*
X2697Y1096D02*
X2758Y1096D01*
X2597Y1095D02*
X2658Y1095D01*
X2697Y1095D02*
X2758Y1095D01*
X2596Y1094D02*
X2623Y1094D01*
X2632Y1094D02*
X2659Y1094D01*
X2696Y1094D02*
X2723Y1094D01*
X2732Y1094D02*
X2759Y1094D01*
X2596Y1093D02*
X2620Y1093D01*
X2635Y1093D02*
X2659Y1093D01*
X2696Y1093D02*
X2720Y1093D01*
X2735Y1093D02*
X2759Y1093D01*
X2596Y1092D02*
X2619Y1092D01*
X2636Y1092D02*
X2659Y1092D01*
X2696Y1092D02*
X2719Y1092D01*
X2736Y1092D02*
X2759Y1092D01*
X2595Y1091D02*
X2617Y1091D01*
X2638Y1091D02*
X2660Y1091D01*
X2695Y1091D02*
X2717Y1091D01*
X2738Y1091D02*
X2760Y1091D01*
X2595Y1090D02*
X2616Y1090D01*
X2639Y1090D02*
X2660Y1090D01*
X2695Y1090D02*
X2716Y1090D01*
X2739Y1090D02*
X2760Y1090D01*
X2595Y1089D02*
X2615Y1089D01*
X2640Y1089D02*
X2661Y1089D01*
X2695Y1089D02*
X2715Y1089D01*
X2740Y1089D02*
X2761Y1089D01*
X2594Y1088D02*
X2615Y1088D01*
X2640Y1088D02*
X2661Y1088D01*
X2694Y1088D02*
X2715Y1088D01*
X2740Y1088D02*
X2761Y1088D01*
X2594Y1087D02*
X2614Y1087D01*
X2641Y1087D02*
X2661Y1087D01*
X2694Y1087D02*
X2714Y1087D01*
X2741Y1087D02*
X2761Y1087D01*
X2594Y1086D02*
X2613Y1086D01*
X2642Y1086D02*
X2661Y1086D01*
X2694Y1086D02*
X2713Y1086D01*
X2742Y1086D02*
X2761Y1086D01*
X2594Y1085D02*
X2613Y1085D01*
X2642Y1085D02*
X2661Y1085D01*
X2694Y1085D02*
X2713Y1085D01*
X2742Y1085D02*
X2761Y1085D01*
X2593Y1084D02*
X2613Y1084D01*
X2642Y1084D02*
X2662Y1084D01*
X2693Y1084D02*
X2713Y1084D01*
X2742Y1084D02*
X2762Y1084D01*
X2593Y1083D02*
X2612Y1083D01*
X2643Y1083D02*
X2662Y1083D01*
X2693Y1083D02*
X2712Y1083D01*
X2743Y1083D02*
X2762Y1083D01*
X2593Y1082D02*
X2612Y1082D01*
X2643Y1082D02*
X2662Y1082D01*
X2693Y1082D02*
X2712Y1082D01*
X2743Y1082D02*
X2762Y1082D01*
X2593Y1081D02*
X2612Y1081D01*
X2643Y1081D02*
X2662Y1081D01*
X2693Y1081D02*
X2712Y1081D01*
X2743Y1081D02*
X2762Y1081D01*
X2593Y1080D02*
X2612Y1080D01*
X2643Y1080D02*
X2662Y1080D01*
X2693Y1080D02*
X2712Y1080D01*
X2743Y1080D02*
X2762Y1080D01*
X2593Y1079D02*
X2612Y1079D01*
X2643Y1079D02*
X2662Y1079D01*
X2693Y1079D02*
X2712Y1079D01*
X2743Y1079D02*
X2762Y1079D01*
X2593Y1078D02*
X2612Y1078D01*
X2643Y1078D02*
X2662Y1078D01*
X2693Y1078D02*
X2712Y1078D01*
X2743Y1078D02*
X2762Y1078D01*
X2593Y1077D02*
X2612Y1077D01*
X2643Y1077D02*
X2662Y1077D01*
X2693Y1077D02*
X2712Y1077D01*
X2743Y1077D02*
X2762Y1077D01*
X2593Y1076D02*
X2612Y1076D01*
X2643Y1076D02*
X2662Y1076D01*
X2693Y1076D02*
X2712Y1076D01*
X2743Y1076D02*
X2762Y1076D01*
X2593Y1075D02*
X2613Y1075D01*
X2642Y1075D02*
X2662Y1075D01*
X2693Y1075D02*
X2713Y1075D01*
X2742Y1075D02*
X2762Y1075D01*
X2594Y1074D02*
X2613Y1074D01*
X2642Y1074D02*
X2661Y1074D01*
X2694Y1074D02*
X2713Y1074D01*
X2742Y1074D02*
X2761Y1074D01*
X2594Y1073D02*
X2613Y1073D01*
X2642Y1073D02*
X2661Y1073D01*
X2694Y1073D02*
X2713Y1073D01*
X2742Y1073D02*
X2761Y1073D01*
X2594Y1072D02*
X2614Y1072D01*
X2641Y1072D02*
X2661Y1072D01*
X2694Y1072D02*
X2714Y1072D01*
X2741Y1072D02*
X2761Y1072D01*
X2594Y1071D02*
X2615Y1071D01*
X2640Y1071D02*
X2661Y1071D01*
X2694Y1071D02*
X2715Y1071D01*
X2740Y1071D02*
X2761Y1071D01*
X2595Y1070D02*
X2615Y1070D01*
X2640Y1070D02*
X2661Y1070D01*
X2695Y1070D02*
X2715Y1070D01*
X2740Y1070D02*
X2761Y1070D01*
X2595Y1069D02*
X2616Y1069D01*
X2639Y1069D02*
X2660Y1069D01*
X2695Y1069D02*
X2716Y1069D01*
X2739Y1069D02*
X2760Y1069D01*
X2595Y1068D02*
X2617Y1068D01*
X2638Y1068D02*
X2660Y1068D01*
X2695Y1068D02*
X2717Y1068D01*
X2738Y1068D02*
X2760Y1068D01*
X2596Y1067D02*
X2619Y1067D01*
X2636Y1067D02*
X2659Y1067D01*
X2696Y1067D02*
X2719Y1067D01*
X2736Y1067D02*
X2759Y1067D01*
X2596Y1066D02*
X2620Y1066D01*
X2635Y1066D02*
X2659Y1066D01*
X2696Y1066D02*
X2720Y1066D01*
X2735Y1066D02*
X2759Y1066D01*
X2596Y1065D02*
X2623Y1065D01*
X2632Y1065D02*
X2659Y1065D01*
X2696Y1065D02*
X2723Y1065D01*
X2732Y1065D02*
X2759Y1065D01*
X2597Y1064D02*
X2658Y1064D01*
X2697Y1064D02*
X2758Y1064D01*
X2597Y1063D02*
X2658Y1063D01*
X2697Y1063D02*
X2758Y1063D01*
X2598Y1062D02*
X2657Y1062D01*
X2698Y1062D02*
X2757Y1062D01*
X2599Y1061D02*
X2657Y1061D01*
X2699Y1061D02*
X2757Y1061D01*
X2599Y1060D02*
X2656Y1060D01*
X2699Y1060D02*
X2756Y1060D01*
X2600Y1059D02*
X2655Y1059D01*
X2700Y1059D02*
X2755Y1059D01*
X2601Y1058D02*
X2655Y1058D01*
X2701Y1058D02*
X2755Y1058D01*
X2601Y1057D02*
X2654Y1057D01*
X2701Y1057D02*
X2754Y1057D01*
X2602Y1056D02*
X2653Y1056D01*
X2702Y1056D02*
X2753Y1056D01*
X2603Y1055D02*
X2652Y1055D01*
X2703Y1055D02*
X2752Y1055D01*
X2604Y1054D02*
X2651Y1054D01*
X2704Y1054D02*
X2751Y1054D01*
X2605Y1053D02*
X2650Y1053D01*
X2705Y1053D02*
X2750Y1053D01*
X2607Y1052D02*
X2649Y1052D01*
X2707Y1052D02*
X2749Y1052D01*
X2608Y1051D02*
X2647Y1051D01*
X2708Y1051D02*
X2747Y1051D01*
X2610Y1050D02*
X2646Y1050D01*
X2710Y1050D02*
X2746Y1050D01*
X2611Y1049D02*
X2644Y1049D01*
X2711Y1049D02*
X2744Y1049D01*
X2613Y1048D02*
X2642Y1048D01*
X2713Y1048D02*
X2742Y1048D01*
X2616Y1047D02*
X2639Y1047D01*
X2716Y1047D02*
X2739Y1047D01*
X2619Y1046D02*
X2637Y1046D01*
X2719Y1046D02*
X2737Y1046D01*
X2623Y1045D02*
X2632Y1045D01*
X2723Y1045D02*
X2732Y1045D01*
D02*
G04 End of Copper0*
M02*