G04 MADE WITH FRITZING*
G04 WWW.FRITZING.ORG*
G04 DOUBLE SIDED*
G04 HOLES PLATED*
G04 CONTOUR ON CENTER OF CONTOUR VECTOR*
%ASAXBY*%
%FSLAX23Y23*%
%MOIN*%
%OFA0B0*%
%SFA1.0B1.0*%
%ADD10C,0.086000*%
%ADD11C,0.148425*%
%ADD12C,0.088000*%
%ADD13R,0.085000X0.085000*%
%ADD14R,0.072992X0.084803*%
%ADD15C,0.010000*%
%LNMASK1*%
G90*
G70*
G54D10*
X1928Y279D03*
X1928Y379D03*
X1928Y479D03*
X1928Y579D03*
X1928Y679D03*
X1928Y779D03*
G54D11*
X2458Y754D03*
X2458Y304D03*
G54D12*
X528Y1079D03*
X528Y1679D03*
X628Y1079D03*
X628Y1679D03*
X728Y1079D03*
X728Y1679D03*
X828Y1079D03*
X828Y1679D03*
X928Y1079D03*
X928Y1679D03*
X1028Y1079D03*
X1028Y1679D03*
X1128Y1079D03*
X1128Y1679D03*
X1228Y1079D03*
X1228Y1679D03*
X1328Y1079D03*
X1328Y1679D03*
X1428Y1079D03*
X1428Y1679D03*
X1528Y1079D03*
X1528Y1679D03*
X1628Y1079D03*
X1628Y1679D03*
X1728Y1079D03*
X1728Y1679D03*
X1828Y1079D03*
X1828Y1679D03*
X1928Y1079D03*
X1928Y1679D03*
X2028Y1079D03*
X2028Y1679D03*
X2128Y1079D03*
X2128Y1679D03*
X2228Y1079D03*
X2228Y1679D03*
X2328Y1079D03*
X2328Y1679D03*
X2428Y1079D03*
X2428Y1679D03*
G54D13*
X528Y1079D03*
G54D14*
X1928Y1979D03*
X1806Y1979D03*
G54D15*
G36*
X1593Y1916D02*
X1593Y2042D01*
X1664Y2042D01*
X1664Y1916D01*
X1593Y1916D01*
G37*
D02*
G36*
X1372Y1916D02*
X1372Y2042D01*
X1443Y2042D01*
X1443Y1916D01*
X1372Y1916D01*
G37*
D02*
G04 End of Mask1*
M02*