G04 MADE WITH FRITZING*
G04 WWW.FRITZING.ORG*
G04 DOUBLE SIDED*
G04 HOLES PLATED*
G04 CONTOUR ON CENTER OF CONTOUR VECTOR*
%ASAXBY*%
%FSLAX23Y23*%
%MOIN*%
%OFA0B0*%
%SFA1.0B1.0*%
%ADD10C,0.076000*%
%ADD11C,0.138425*%
%ADD12C,0.078000*%
%ADD13C,0.075000*%
%ADD14C,0.062992*%
%ADD15R,0.075000X0.075000*%
%ADD16R,0.062992X0.062992*%
%ADD17C,0.024000*%
%LNCOPPER0*%
G90*
G70*
G54D10*
X1928Y279D03*
X1928Y379D03*
X1928Y479D03*
X1928Y579D03*
X1928Y679D03*
X1928Y779D03*
G54D11*
X2458Y754D03*
X2458Y304D03*
G54D12*
X528Y1080D03*
X528Y1679D03*
X628Y1080D03*
X628Y1679D03*
X728Y1080D03*
X728Y1679D03*
X828Y1080D03*
X828Y1679D03*
X928Y1080D03*
X928Y1679D03*
X1028Y1080D03*
X1028Y1679D03*
X1128Y1080D03*
X1128Y1679D03*
X1228Y1080D03*
X1228Y1679D03*
X1328Y1080D03*
X1328Y1679D03*
X1428Y1080D03*
X1428Y1679D03*
X1528Y1080D03*
X1528Y1679D03*
X1628Y1080D03*
X1628Y1679D03*
X1728Y1080D03*
X1728Y1679D03*
X1828Y1080D03*
X1828Y1679D03*
X1928Y1080D03*
X1928Y1679D03*
X2028Y1080D03*
X2028Y1679D03*
X2128Y1080D03*
X2128Y1679D03*
X2228Y1080D03*
X2228Y1679D03*
X2328Y1080D03*
X2328Y1679D03*
X2428Y1080D03*
X2428Y1679D03*
G54D13*
X1528Y1979D03*
X1128Y1979D03*
G54D14*
X1928Y1979D03*
X1928Y1881D03*
G54D15*
X528Y1080D03*
G54D16*
X1928Y1979D03*
G54D17*
X1829Y878D02*
X1829Y779D01*
D02*
X1829Y779D02*
X1829Y478D01*
D02*
X1828Y1050D02*
X1829Y878D01*
D02*
X1829Y478D02*
X1898Y479D01*
D02*
X1928Y1110D02*
X1928Y1179D01*
D02*
X1928Y1179D02*
X429Y1179D01*
D02*
X429Y1179D02*
X429Y379D01*
D02*
X429Y379D02*
X1429Y379D01*
D02*
X1429Y379D02*
X1898Y379D01*
D02*
X1928Y1854D02*
X1928Y1709D01*
D02*
X1729Y1980D02*
X1901Y1979D01*
D02*
X1557Y1979D02*
X1729Y1980D01*
D02*
X2328Y1080D02*
X2321Y1109D01*
D02*
X2229Y779D02*
X2228Y1050D01*
D02*
X1959Y779D02*
X2229Y779D01*
D02*
X2328Y1279D02*
X2328Y1110D01*
D02*
X2927Y1279D02*
X2328Y1279D01*
D02*
X2927Y580D02*
X2927Y1279D01*
D02*
X1959Y579D02*
X2927Y580D01*
G04 End of Copper0*
M02*