; NON-PLATED HOLES START AT T1
; THROUGH (PLATED) HOLES START AT T100
M48
INCH
T100C0.098425
T101C0.035000
T102C0.038000
T103C0.039370
T104C0.031497
%
T100
X024583Y007541
X024583Y003041
T101
X015283Y019791
X011283Y019791
T102
X008283Y010796
X010283Y016791
X015283Y010796
X018283Y016791
X021283Y010796
X024283Y016791
X020283Y010796
X007283Y016791
X006283Y010796
X011283Y016791
X012283Y010796
X014283Y016791
X017283Y016791
X014283Y010796
X017283Y010796
X013283Y016791
X007283Y010796
X013283Y010796
X008283Y016791
X012283Y016791
X005283Y010796
X016283Y016791
X009283Y010796
X019283Y016791
X024283Y010796
X009283Y016791
X015283Y016791
X005283Y016791
X022283Y016791
X016283Y010796
X020283Y016791
X023283Y016791
X022283Y010796
X018283Y010796
X006283Y016791
X011283Y010796
X010283Y010796
X019283Y010796
X023283Y010796
X021283Y016791
T103
X019283Y006791
X019283Y005791
X019283Y003791
X019283Y004791
X019283Y002791
X019283Y007791
T104
X019283Y018806
X019283Y019791
T00
M30
