G04 MADE WITH FRITZING*
G04 WWW.FRITZING.ORG*
G04 DOUBLE SIDED*
G04 HOLES PLATED*
G04 CONTOUR ON CENTER OF CONTOUR VECTOR*
%ASAXBY*%
%FSLAX23Y23*%
%MOIN*%
%OFA0B0*%
%SFA1.0B1.0*%
%ADD10C,0.076000*%
%ADD11C,0.138425*%
%ADD12C,0.078000*%
%ADD13C,0.075000*%
%ADD14C,0.062992*%
%ADD15R,0.075000X0.075000*%
%ADD16R,0.062992X0.062992*%
%ADD17C,0.024000*%
%ADD18R,0.001000X0.001000*%
%LNCOPPER1*%
G90*
G70*
G54D10*
X1928Y279D03*
X1928Y379D03*
X1928Y479D03*
X1928Y579D03*
X1928Y679D03*
X1928Y779D03*
G54D11*
X2458Y754D03*
X2458Y304D03*
G54D12*
X528Y1080D03*
X528Y1679D03*
X628Y1080D03*
X628Y1679D03*
X728Y1080D03*
X728Y1679D03*
X828Y1080D03*
X828Y1679D03*
X928Y1080D03*
X928Y1679D03*
X1028Y1080D03*
X1028Y1679D03*
X1128Y1080D03*
X1128Y1679D03*
X1228Y1080D03*
X1228Y1679D03*
X1328Y1080D03*
X1328Y1679D03*
X1428Y1080D03*
X1428Y1679D03*
X1528Y1080D03*
X1528Y1679D03*
X1628Y1080D03*
X1628Y1679D03*
X1728Y1080D03*
X1728Y1679D03*
X1828Y1080D03*
X1828Y1679D03*
X1928Y1080D03*
X1928Y1679D03*
X2028Y1080D03*
X2028Y1679D03*
X2128Y1080D03*
X2128Y1679D03*
X2228Y1080D03*
X2228Y1679D03*
X2328Y1080D03*
X2328Y1679D03*
X2428Y1080D03*
X2428Y1679D03*
G54D13*
X1528Y1979D03*
X1128Y1979D03*
G54D14*
X1928Y1979D03*
X1928Y1881D03*
G54D15*
X528Y1080D03*
G54D16*
X1928Y1979D03*
G54D17*
X1100Y1979D02*
X529Y1980D01*
D02*
X529Y1980D02*
X528Y1709D01*
G54D18*
X279Y118D02*
X288Y118D01*
X277Y117D02*
X289Y117D01*
X277Y116D02*
X290Y116D01*
X276Y115D02*
X290Y115D01*
X67Y114D02*
X91Y114D01*
X197Y114D02*
X215Y114D01*
X276Y114D02*
X290Y114D01*
X480Y114D02*
X484Y114D01*
X624Y114D02*
X648Y114D01*
X65Y113D02*
X93Y113D01*
X196Y113D02*
X217Y113D01*
X276Y113D02*
X290Y113D01*
X479Y113D02*
X485Y113D01*
X623Y113D02*
X650Y113D01*
X63Y112D02*
X93Y112D01*
X195Y112D02*
X217Y112D01*
X276Y112D02*
X290Y112D01*
X478Y112D02*
X486Y112D01*
X622Y112D02*
X652Y112D01*
X61Y111D02*
X94Y111D01*
X194Y111D02*
X218Y111D01*
X276Y111D02*
X290Y111D01*
X478Y111D02*
X486Y111D01*
X621Y111D02*
X653Y111D01*
X60Y110D02*
X94Y110D01*
X194Y110D02*
X218Y110D01*
X276Y110D02*
X290Y110D01*
X477Y110D02*
X486Y110D01*
X621Y110D02*
X654Y110D01*
X59Y109D02*
X94Y109D01*
X194Y109D02*
X218Y109D01*
X276Y109D02*
X290Y109D01*
X477Y109D02*
X486Y109D01*
X621Y109D02*
X655Y109D01*
X59Y108D02*
X94Y108D01*
X194Y108D02*
X218Y108D01*
X276Y108D02*
X290Y108D01*
X477Y108D02*
X486Y108D01*
X622Y108D02*
X656Y108D01*
X58Y107D02*
X93Y107D01*
X195Y107D02*
X218Y107D01*
X277Y107D02*
X289Y107D01*
X477Y107D02*
X486Y107D01*
X622Y107D02*
X657Y107D01*
X58Y106D02*
X92Y106D01*
X196Y106D02*
X218Y106D01*
X278Y106D02*
X289Y106D01*
X477Y106D02*
X486Y106D01*
X623Y106D02*
X657Y106D01*
X57Y105D02*
X91Y105D01*
X197Y105D02*
X218Y105D01*
X279Y105D02*
X287Y105D01*
X477Y105D02*
X486Y105D01*
X624Y105D02*
X658Y105D01*
X57Y104D02*
X68Y104D01*
X209Y104D02*
X218Y104D01*
X477Y104D02*
X486Y104D01*
X631Y104D02*
X640Y104D01*
X647Y104D02*
X658Y104D01*
X56Y103D02*
X67Y103D01*
X209Y103D02*
X218Y103D01*
X477Y103D02*
X486Y103D01*
X631Y103D02*
X640Y103D01*
X648Y103D02*
X659Y103D01*
X56Y102D02*
X66Y102D01*
X209Y102D02*
X218Y102D01*
X477Y102D02*
X486Y102D01*
X631Y102D02*
X640Y102D01*
X649Y102D02*
X659Y102D01*
X55Y101D02*
X66Y101D01*
X209Y101D02*
X218Y101D01*
X477Y101D02*
X486Y101D01*
X631Y101D02*
X640Y101D01*
X650Y101D02*
X660Y101D01*
X55Y100D02*
X65Y100D01*
X209Y100D02*
X218Y100D01*
X477Y100D02*
X486Y100D01*
X631Y100D02*
X640Y100D01*
X650Y100D02*
X660Y100D01*
X54Y99D02*
X65Y99D01*
X209Y99D02*
X218Y99D01*
X477Y99D02*
X486Y99D01*
X631Y99D02*
X640Y99D01*
X651Y99D02*
X661Y99D01*
X54Y98D02*
X64Y98D01*
X209Y98D02*
X218Y98D01*
X477Y98D02*
X486Y98D01*
X631Y98D02*
X640Y98D01*
X651Y98D02*
X661Y98D01*
X53Y97D02*
X64Y97D01*
X209Y97D02*
X218Y97D01*
X477Y97D02*
X486Y97D01*
X631Y97D02*
X640Y97D01*
X652Y97D02*
X662Y97D01*
X53Y96D02*
X63Y96D01*
X209Y96D02*
X218Y96D01*
X477Y96D02*
X486Y96D01*
X631Y96D02*
X640Y96D01*
X652Y96D02*
X662Y96D01*
X52Y95D02*
X63Y95D01*
X209Y95D02*
X218Y95D01*
X477Y95D02*
X486Y95D01*
X631Y95D02*
X640Y95D01*
X653Y95D02*
X663Y95D01*
X52Y94D02*
X62Y94D01*
X209Y94D02*
X218Y94D01*
X477Y94D02*
X486Y94D01*
X631Y94D02*
X640Y94D01*
X653Y94D02*
X663Y94D01*
X51Y93D02*
X62Y93D01*
X132Y93D02*
X151Y93D01*
X209Y93D02*
X218Y93D01*
X269Y93D02*
X287Y93D01*
X336Y93D02*
X339Y93D01*
X358Y93D02*
X369Y93D01*
X477Y93D02*
X486Y93D01*
X564Y93D02*
X583Y93D01*
X631Y93D02*
X640Y93D01*
X654Y93D02*
X664Y93D01*
X708Y93D02*
X727Y93D01*
X768Y93D02*
X771Y93D01*
X790Y93D02*
X801Y93D01*
X840Y93D02*
X843Y93D01*
X862Y93D02*
X873Y93D01*
X924Y93D02*
X943Y93D01*
X51Y92D02*
X61Y92D01*
X130Y92D02*
X154Y92D01*
X209Y92D02*
X218Y92D01*
X268Y92D02*
X288Y92D01*
X335Y92D02*
X341Y92D01*
X355Y92D02*
X372Y92D01*
X477Y92D02*
X486Y92D01*
X562Y92D02*
X586Y92D01*
X631Y92D02*
X640Y92D01*
X654Y92D02*
X664Y92D01*
X706Y92D02*
X730Y92D01*
X767Y92D02*
X773Y92D01*
X787Y92D02*
X804Y92D01*
X839Y92D02*
X845Y92D01*
X859Y92D02*
X876Y92D01*
X921Y92D02*
X946Y92D01*
X50Y91D02*
X61Y91D01*
X128Y91D02*
X155Y91D01*
X209Y91D02*
X218Y91D01*
X267Y91D02*
X289Y91D01*
X334Y91D02*
X341Y91D01*
X353Y91D02*
X374Y91D01*
X477Y91D02*
X486Y91D01*
X560Y91D02*
X587Y91D01*
X631Y91D02*
X640Y91D01*
X655Y91D02*
X665Y91D01*
X704Y91D02*
X731Y91D01*
X766Y91D02*
X773Y91D01*
X785Y91D02*
X806Y91D01*
X838Y91D02*
X845Y91D01*
X857Y91D02*
X878Y91D01*
X920Y91D02*
X947Y91D01*
X50Y90D02*
X60Y90D01*
X126Y90D02*
X157Y90D01*
X209Y90D02*
X218Y90D01*
X267Y90D02*
X290Y90D01*
X334Y90D02*
X342Y90D01*
X351Y90D02*
X375Y90D01*
X477Y90D02*
X486Y90D01*
X558Y90D02*
X589Y90D01*
X631Y90D02*
X640Y90D01*
X655Y90D02*
X665Y90D01*
X702Y90D02*
X733Y90D01*
X766Y90D02*
X774Y90D01*
X783Y90D02*
X807Y90D01*
X838Y90D02*
X846Y90D01*
X855Y90D02*
X879Y90D01*
X918Y90D02*
X949Y90D01*
X49Y89D02*
X60Y89D01*
X125Y89D02*
X158Y89D01*
X209Y89D02*
X218Y89D01*
X266Y89D02*
X290Y89D01*
X333Y89D02*
X342Y89D01*
X350Y89D02*
X376Y89D01*
X477Y89D02*
X486Y89D01*
X557Y89D02*
X590Y89D01*
X631Y89D02*
X640Y89D01*
X656Y89D02*
X666Y89D01*
X701Y89D02*
X734Y89D01*
X765Y89D02*
X774Y89D01*
X782Y89D02*
X808Y89D01*
X837Y89D02*
X846Y89D01*
X854Y89D02*
X880Y89D01*
X917Y89D02*
X950Y89D01*
X49Y88D02*
X59Y88D01*
X124Y88D02*
X159Y88D01*
X209Y88D02*
X218Y88D01*
X266Y88D02*
X290Y88D01*
X333Y88D02*
X342Y88D01*
X348Y88D02*
X377Y88D01*
X477Y88D02*
X486Y88D01*
X556Y88D02*
X591Y88D01*
X631Y88D02*
X640Y88D01*
X656Y88D02*
X666Y88D01*
X700Y88D02*
X735Y88D01*
X765Y88D02*
X774Y88D01*
X780Y88D02*
X809Y88D01*
X837Y88D02*
X846Y88D01*
X852Y88D02*
X881Y88D01*
X916Y88D02*
X951Y88D01*
X48Y87D02*
X59Y87D01*
X123Y87D02*
X160Y87D01*
X209Y87D02*
X218Y87D01*
X266Y87D02*
X290Y87D01*
X333Y87D02*
X342Y87D01*
X347Y87D02*
X378Y87D01*
X477Y87D02*
X486Y87D01*
X555Y87D02*
X592Y87D01*
X631Y87D02*
X640Y87D01*
X657Y87D02*
X667Y87D01*
X699Y87D02*
X736Y87D01*
X765Y87D02*
X774Y87D01*
X779Y87D02*
X810Y87D01*
X837Y87D02*
X846Y87D01*
X851Y87D02*
X882Y87D01*
X915Y87D02*
X952Y87D01*
X48Y86D02*
X58Y86D01*
X122Y86D02*
X161Y86D01*
X209Y86D02*
X218Y86D01*
X267Y86D02*
X290Y86D01*
X333Y86D02*
X342Y86D01*
X345Y86D02*
X379Y86D01*
X477Y86D02*
X486Y86D01*
X554Y86D02*
X593Y86D01*
X631Y86D02*
X640Y86D01*
X657Y86D02*
X667Y86D01*
X698Y86D02*
X737Y86D01*
X765Y86D02*
X774Y86D01*
X777Y86D02*
X811Y86D01*
X837Y86D02*
X846Y86D01*
X849Y86D02*
X883Y86D01*
X914Y86D02*
X953Y86D01*
X47Y85D02*
X58Y85D01*
X121Y85D02*
X162Y85D01*
X209Y85D02*
X218Y85D01*
X268Y85D02*
X290Y85D01*
X333Y85D02*
X379Y85D01*
X477Y85D02*
X486Y85D01*
X553Y85D02*
X594Y85D01*
X631Y85D02*
X640Y85D01*
X658Y85D02*
X668Y85D01*
X697Y85D02*
X738Y85D01*
X765Y85D02*
X811Y85D01*
X837Y85D02*
X883Y85D01*
X913Y85D02*
X954Y85D01*
X47Y84D02*
X57Y84D01*
X120Y84D02*
X163Y84D01*
X209Y84D02*
X218Y84D01*
X269Y84D02*
X290Y84D01*
X333Y84D02*
X380Y84D01*
X477Y84D02*
X486Y84D01*
X552Y84D02*
X595Y84D01*
X631Y84D02*
X640Y84D01*
X658Y84D02*
X668Y84D01*
X696Y84D02*
X739Y84D01*
X765Y84D02*
X812Y84D01*
X837Y84D02*
X884Y84D01*
X912Y84D02*
X955Y84D01*
X47Y83D02*
X56Y83D01*
X120Y83D02*
X133Y83D01*
X150Y83D02*
X164Y83D01*
X209Y83D02*
X218Y83D01*
X281Y83D02*
X290Y83D01*
X333Y83D02*
X358Y83D01*
X368Y83D02*
X380Y83D01*
X477Y83D02*
X486Y83D01*
X552Y83D02*
X565Y83D01*
X582Y83D02*
X596Y83D01*
X631Y83D02*
X640Y83D01*
X659Y83D02*
X669Y83D01*
X696Y83D02*
X709Y83D01*
X726Y83D02*
X740Y83D01*
X765Y83D02*
X790Y83D01*
X800Y83D02*
X812Y83D01*
X837Y83D02*
X862Y83D01*
X872Y83D02*
X884Y83D01*
X912Y83D02*
X925Y83D01*
X942Y83D02*
X956Y83D01*
X46Y82D02*
X56Y82D01*
X119Y82D02*
X131Y82D01*
X152Y82D02*
X164Y82D01*
X209Y82D02*
X218Y82D01*
X281Y82D02*
X290Y82D01*
X333Y82D02*
X357Y82D01*
X370Y82D02*
X380Y82D01*
X477Y82D02*
X486Y82D01*
X551Y82D02*
X563Y82D01*
X584Y82D02*
X596Y82D01*
X631Y82D02*
X640Y82D01*
X659Y82D02*
X669Y82D01*
X695Y82D02*
X707Y82D01*
X728Y82D02*
X740Y82D01*
X765Y82D02*
X789Y82D01*
X802Y82D02*
X812Y82D01*
X837Y82D02*
X861Y82D01*
X874Y82D02*
X884Y82D01*
X911Y82D02*
X923Y82D01*
X944Y82D02*
X956Y82D01*
X46Y81D02*
X56Y81D01*
X119Y81D02*
X130Y81D01*
X153Y81D02*
X165Y81D01*
X209Y81D02*
X218Y81D01*
X281Y81D02*
X290Y81D01*
X333Y81D02*
X355Y81D01*
X371Y81D02*
X381Y81D01*
X477Y81D02*
X486Y81D01*
X551Y81D02*
X562Y81D01*
X585Y81D02*
X597Y81D01*
X631Y81D02*
X640Y81D01*
X660Y81D02*
X669Y81D01*
X695Y81D02*
X706Y81D01*
X729Y81D02*
X741Y81D01*
X765Y81D02*
X787Y81D01*
X803Y81D02*
X812Y81D01*
X837Y81D02*
X859Y81D01*
X875Y81D02*
X884Y81D01*
X910Y81D02*
X922Y81D01*
X945Y81D02*
X957Y81D01*
X46Y80D02*
X55Y80D01*
X118Y80D02*
X129Y80D01*
X155Y80D02*
X165Y80D01*
X209Y80D02*
X218Y80D01*
X281Y80D02*
X290Y80D01*
X333Y80D02*
X354Y80D01*
X371Y80D02*
X381Y80D01*
X477Y80D02*
X486Y80D01*
X550Y80D02*
X561Y80D01*
X587Y80D02*
X597Y80D01*
X631Y80D02*
X640Y80D01*
X660Y80D02*
X670Y80D01*
X694Y80D02*
X705Y80D01*
X731Y80D02*
X741Y80D01*
X765Y80D02*
X785Y80D01*
X803Y80D02*
X813Y80D01*
X837Y80D02*
X857Y80D01*
X875Y80D02*
X885Y80D01*
X910Y80D02*
X921Y80D01*
X946Y80D02*
X957Y80D01*
X46Y79D02*
X55Y79D01*
X118Y79D02*
X128Y79D01*
X155Y79D02*
X166Y79D01*
X209Y79D02*
X218Y79D01*
X281Y79D02*
X290Y79D01*
X333Y79D02*
X352Y79D01*
X372Y79D02*
X381Y79D01*
X477Y79D02*
X486Y79D01*
X550Y79D02*
X560Y79D01*
X587Y79D02*
X598Y79D01*
X631Y79D02*
X640Y79D01*
X660Y79D02*
X670Y79D01*
X694Y79D02*
X704Y79D01*
X731Y79D02*
X742Y79D01*
X765Y79D02*
X784Y79D01*
X803Y79D02*
X813Y79D01*
X837Y79D02*
X856Y79D01*
X875Y79D02*
X885Y79D01*
X910Y79D02*
X920Y79D01*
X947Y79D02*
X958Y79D01*
X45Y78D02*
X55Y78D01*
X118Y78D02*
X127Y78D01*
X156Y78D02*
X166Y78D01*
X209Y78D02*
X218Y78D01*
X281Y78D02*
X290Y78D01*
X333Y78D02*
X350Y78D01*
X372Y78D02*
X381Y78D01*
X477Y78D02*
X486Y78D01*
X550Y78D02*
X559Y78D01*
X588Y78D02*
X598Y78D01*
X631Y78D02*
X640Y78D01*
X661Y78D02*
X670Y78D01*
X694Y78D02*
X703Y78D01*
X732Y78D02*
X742Y78D01*
X765Y78D02*
X782Y78D01*
X804Y78D02*
X813Y78D01*
X837Y78D02*
X854Y78D01*
X876Y78D02*
X885Y78D01*
X910Y78D02*
X919Y78D01*
X948Y78D02*
X958Y78D01*
X45Y77D02*
X55Y77D01*
X117Y77D02*
X127Y77D01*
X157Y77D02*
X166Y77D01*
X209Y77D02*
X218Y77D01*
X281Y77D02*
X290Y77D01*
X333Y77D02*
X349Y77D01*
X372Y77D02*
X381Y77D01*
X477Y77D02*
X486Y77D01*
X549Y77D02*
X559Y77D01*
X589Y77D02*
X598Y77D01*
X631Y77D02*
X640Y77D01*
X661Y77D02*
X670Y77D01*
X693Y77D02*
X703Y77D01*
X733Y77D02*
X742Y77D01*
X765Y77D02*
X781Y77D01*
X804Y77D02*
X813Y77D01*
X837Y77D02*
X853Y77D01*
X876Y77D02*
X885Y77D01*
X909Y77D02*
X919Y77D01*
X949Y77D02*
X958Y77D01*
X45Y76D02*
X54Y76D01*
X117Y76D02*
X126Y76D01*
X157Y76D02*
X166Y76D01*
X209Y76D02*
X218Y76D01*
X281Y76D02*
X290Y76D01*
X333Y76D02*
X347Y76D01*
X372Y76D02*
X381Y76D01*
X477Y76D02*
X486Y76D01*
X549Y76D02*
X558Y76D01*
X589Y76D02*
X598Y76D01*
X631Y76D02*
X640Y76D01*
X661Y76D02*
X670Y76D01*
X693Y76D02*
X702Y76D01*
X733Y76D02*
X742Y76D01*
X765Y76D02*
X779Y76D01*
X804Y76D02*
X813Y76D01*
X837Y76D02*
X851Y76D01*
X876Y76D02*
X885Y76D01*
X909Y76D02*
X918Y76D01*
X949Y76D02*
X958Y76D01*
X45Y75D02*
X54Y75D01*
X117Y75D02*
X126Y75D01*
X157Y75D02*
X166Y75D01*
X209Y75D02*
X218Y75D01*
X281Y75D02*
X290Y75D01*
X333Y75D02*
X346Y75D01*
X372Y75D02*
X381Y75D01*
X477Y75D02*
X486Y75D01*
X549Y75D02*
X558Y75D01*
X589Y75D02*
X598Y75D01*
X631Y75D02*
X640Y75D01*
X661Y75D02*
X670Y75D01*
X693Y75D02*
X702Y75D01*
X733Y75D02*
X742Y75D01*
X765Y75D02*
X778Y75D01*
X804Y75D02*
X813Y75D01*
X837Y75D02*
X850Y75D01*
X876Y75D02*
X885Y75D01*
X909Y75D02*
X918Y75D01*
X949Y75D02*
X958Y75D01*
X45Y74D02*
X55Y74D01*
X117Y74D02*
X126Y74D01*
X157Y74D02*
X166Y74D01*
X209Y74D02*
X218Y74D01*
X281Y74D02*
X290Y74D01*
X333Y74D02*
X344Y74D01*
X372Y74D02*
X381Y74D01*
X477Y74D02*
X486Y74D01*
X549Y74D02*
X558Y74D01*
X589Y74D02*
X598Y74D01*
X631Y74D02*
X640Y74D01*
X661Y74D02*
X670Y74D01*
X693Y74D02*
X702Y74D01*
X733Y74D02*
X742Y74D01*
X765Y74D02*
X776Y74D01*
X804Y74D02*
X813Y74D01*
X837Y74D02*
X848Y74D01*
X876Y74D02*
X885Y74D01*
X909Y74D02*
X918Y74D01*
X949Y74D02*
X958Y74D01*
X45Y73D02*
X55Y73D01*
X117Y73D02*
X126Y73D01*
X157Y73D02*
X166Y73D01*
X209Y73D02*
X218Y73D01*
X281Y73D02*
X290Y73D01*
X333Y73D02*
X343Y73D01*
X372Y73D02*
X381Y73D01*
X477Y73D02*
X486Y73D01*
X549Y73D02*
X558Y73D01*
X589Y73D02*
X598Y73D01*
X631Y73D02*
X640Y73D01*
X661Y73D02*
X670Y73D01*
X693Y73D02*
X702Y73D01*
X733Y73D02*
X742Y73D01*
X765Y73D02*
X775Y73D01*
X804Y73D02*
X813Y73D01*
X837Y73D02*
X847Y73D01*
X876Y73D02*
X885Y73D01*
X909Y73D02*
X918Y73D01*
X949Y73D02*
X958Y73D01*
X46Y72D02*
X55Y72D01*
X117Y72D02*
X126Y72D01*
X157Y72D02*
X166Y72D01*
X209Y72D02*
X218Y72D01*
X281Y72D02*
X290Y72D01*
X333Y72D02*
X342Y72D01*
X372Y72D02*
X381Y72D01*
X477Y72D02*
X486Y72D01*
X549Y72D02*
X558Y72D01*
X589Y72D02*
X598Y72D01*
X631Y72D02*
X640Y72D01*
X660Y72D02*
X670Y72D01*
X693Y72D02*
X702Y72D01*
X733Y72D02*
X742Y72D01*
X765Y72D02*
X774Y72D01*
X804Y72D02*
X813Y72D01*
X837Y72D02*
X846Y72D01*
X876Y72D02*
X885Y72D01*
X909Y72D02*
X918Y72D01*
X949Y72D02*
X958Y72D01*
X46Y71D02*
X55Y71D01*
X117Y71D02*
X126Y71D01*
X157Y71D02*
X166Y71D01*
X209Y71D02*
X218Y71D01*
X281Y71D02*
X290Y71D01*
X333Y71D02*
X342Y71D01*
X372Y71D02*
X381Y71D01*
X477Y71D02*
X486Y71D01*
X549Y71D02*
X558Y71D01*
X589Y71D02*
X598Y71D01*
X631Y71D02*
X640Y71D01*
X660Y71D02*
X670Y71D01*
X693Y71D02*
X702Y71D01*
X733Y71D02*
X742Y71D01*
X765Y71D02*
X774Y71D01*
X804Y71D02*
X813Y71D01*
X837Y71D02*
X846Y71D01*
X876Y71D02*
X885Y71D01*
X909Y71D02*
X918Y71D01*
X949Y71D02*
X958Y71D01*
X46Y70D02*
X56Y70D01*
X117Y70D02*
X126Y70D01*
X157Y70D02*
X166Y70D01*
X209Y70D02*
X218Y70D01*
X281Y70D02*
X290Y70D01*
X333Y70D02*
X342Y70D01*
X372Y70D02*
X381Y70D01*
X477Y70D02*
X486Y70D01*
X549Y70D02*
X558Y70D01*
X589Y70D02*
X598Y70D01*
X631Y70D02*
X640Y70D01*
X660Y70D02*
X669Y70D01*
X693Y70D02*
X702Y70D01*
X733Y70D02*
X742Y70D01*
X765Y70D02*
X774Y70D01*
X804Y70D02*
X813Y70D01*
X837Y70D02*
X846Y70D01*
X876Y70D02*
X885Y70D01*
X909Y70D02*
X918Y70D01*
X949Y70D02*
X958Y70D01*
X46Y69D02*
X56Y69D01*
X117Y69D02*
X126Y69D01*
X157Y69D02*
X166Y69D01*
X209Y69D02*
X218Y69D01*
X281Y69D02*
X290Y69D01*
X333Y69D02*
X342Y69D01*
X372Y69D02*
X381Y69D01*
X477Y69D02*
X486Y69D01*
X549Y69D02*
X558Y69D01*
X589Y69D02*
X598Y69D01*
X631Y69D02*
X640Y69D01*
X659Y69D02*
X669Y69D01*
X693Y69D02*
X702Y69D01*
X733Y69D02*
X742Y69D01*
X765Y69D02*
X774Y69D01*
X804Y69D02*
X813Y69D01*
X837Y69D02*
X846Y69D01*
X876Y69D02*
X885Y69D01*
X909Y69D02*
X918Y69D01*
X949Y69D02*
X958Y69D01*
X47Y68D02*
X57Y68D01*
X117Y68D02*
X126Y68D01*
X157Y68D02*
X166Y68D01*
X209Y68D02*
X218Y68D01*
X281Y68D02*
X290Y68D01*
X333Y68D02*
X342Y68D01*
X372Y68D02*
X381Y68D01*
X477Y68D02*
X486Y68D01*
X549Y68D02*
X559Y68D01*
X589Y68D02*
X598Y68D01*
X631Y68D02*
X640Y68D01*
X659Y68D02*
X669Y68D01*
X693Y68D02*
X702Y68D01*
X733Y68D02*
X742Y68D01*
X765Y68D02*
X774Y68D01*
X804Y68D02*
X813Y68D01*
X837Y68D02*
X846Y68D01*
X876Y68D02*
X885Y68D01*
X909Y68D02*
X919Y68D01*
X949Y68D02*
X958Y68D01*
X47Y67D02*
X57Y67D01*
X117Y67D02*
X126Y67D01*
X157Y67D02*
X166Y67D01*
X209Y67D02*
X218Y67D01*
X281Y67D02*
X290Y67D01*
X333Y67D02*
X342Y67D01*
X372Y67D02*
X381Y67D01*
X477Y67D02*
X486Y67D01*
X549Y67D02*
X598Y67D01*
X631Y67D02*
X640Y67D01*
X658Y67D02*
X668Y67D01*
X693Y67D02*
X702Y67D01*
X733Y67D02*
X742Y67D01*
X765Y67D02*
X774Y67D01*
X804Y67D02*
X813Y67D01*
X837Y67D02*
X846Y67D01*
X876Y67D02*
X885Y67D01*
X909Y67D02*
X958Y67D01*
X47Y66D02*
X58Y66D01*
X117Y66D02*
X126Y66D01*
X157Y66D02*
X166Y66D01*
X209Y66D02*
X218Y66D01*
X281Y66D02*
X290Y66D01*
X333Y66D02*
X342Y66D01*
X372Y66D02*
X381Y66D01*
X477Y66D02*
X486Y66D01*
X549Y66D02*
X598Y66D01*
X631Y66D02*
X640Y66D01*
X658Y66D02*
X668Y66D01*
X693Y66D02*
X702Y66D01*
X733Y66D02*
X742Y66D01*
X765Y66D02*
X774Y66D01*
X804Y66D02*
X813Y66D01*
X837Y66D02*
X846Y66D01*
X876Y66D02*
X885Y66D01*
X909Y66D02*
X958Y66D01*
X48Y65D02*
X58Y65D01*
X117Y65D02*
X126Y65D01*
X157Y65D02*
X166Y65D01*
X209Y65D02*
X218Y65D01*
X281Y65D02*
X290Y65D01*
X333Y65D02*
X342Y65D01*
X372Y65D02*
X381Y65D01*
X477Y65D02*
X486Y65D01*
X549Y65D02*
X598Y65D01*
X631Y65D02*
X640Y65D01*
X657Y65D02*
X667Y65D01*
X693Y65D02*
X702Y65D01*
X733Y65D02*
X742Y65D01*
X765Y65D02*
X774Y65D01*
X804Y65D02*
X813Y65D01*
X837Y65D02*
X846Y65D01*
X876Y65D02*
X885Y65D01*
X909Y65D02*
X958Y65D01*
X48Y64D02*
X59Y64D01*
X117Y64D02*
X126Y64D01*
X157Y64D02*
X166Y64D01*
X209Y64D02*
X218Y64D01*
X281Y64D02*
X290Y64D01*
X333Y64D02*
X342Y64D01*
X372Y64D02*
X381Y64D01*
X477Y64D02*
X486Y64D01*
X549Y64D02*
X598Y64D01*
X631Y64D02*
X640Y64D01*
X657Y64D02*
X667Y64D01*
X693Y64D02*
X702Y64D01*
X733Y64D02*
X742Y64D01*
X765Y64D02*
X774Y64D01*
X804Y64D02*
X813Y64D01*
X837Y64D02*
X846Y64D01*
X876Y64D02*
X885Y64D01*
X909Y64D02*
X958Y64D01*
X49Y63D02*
X59Y63D01*
X117Y63D02*
X126Y63D01*
X157Y63D02*
X166Y63D01*
X209Y63D02*
X218Y63D01*
X281Y63D02*
X290Y63D01*
X333Y63D02*
X342Y63D01*
X372Y63D02*
X381Y63D01*
X477Y63D02*
X486Y63D01*
X549Y63D02*
X598Y63D01*
X631Y63D02*
X640Y63D01*
X656Y63D02*
X666Y63D01*
X693Y63D02*
X702Y63D01*
X733Y63D02*
X742Y63D01*
X765Y63D02*
X774Y63D01*
X804Y63D02*
X813Y63D01*
X837Y63D02*
X846Y63D01*
X876Y63D02*
X885Y63D01*
X909Y63D02*
X958Y63D01*
X49Y62D02*
X60Y62D01*
X117Y62D02*
X126Y62D01*
X157Y62D02*
X166Y62D01*
X209Y62D02*
X218Y62D01*
X281Y62D02*
X290Y62D01*
X333Y62D02*
X342Y62D01*
X372Y62D02*
X381Y62D01*
X477Y62D02*
X486Y62D01*
X549Y62D02*
X598Y62D01*
X631Y62D02*
X640Y62D01*
X656Y62D02*
X666Y62D01*
X693Y62D02*
X702Y62D01*
X733Y62D02*
X742Y62D01*
X765Y62D02*
X774Y62D01*
X804Y62D02*
X813Y62D01*
X837Y62D02*
X846Y62D01*
X876Y62D02*
X885Y62D01*
X909Y62D02*
X958Y62D01*
X50Y61D02*
X60Y61D01*
X117Y61D02*
X126Y61D01*
X157Y61D02*
X166Y61D01*
X209Y61D02*
X218Y61D01*
X281Y61D02*
X290Y61D01*
X333Y61D02*
X342Y61D01*
X372Y61D02*
X381Y61D01*
X477Y61D02*
X486Y61D01*
X549Y61D02*
X598Y61D01*
X631Y61D02*
X640Y61D01*
X655Y61D02*
X665Y61D01*
X693Y61D02*
X702Y61D01*
X733Y61D02*
X742Y61D01*
X765Y61D02*
X774Y61D01*
X804Y61D02*
X813Y61D01*
X837Y61D02*
X846Y61D01*
X876Y61D02*
X885Y61D01*
X909Y61D02*
X958Y61D01*
X50Y60D02*
X61Y60D01*
X117Y60D02*
X126Y60D01*
X157Y60D02*
X166Y60D01*
X209Y60D02*
X218Y60D01*
X281Y60D02*
X290Y60D01*
X333Y60D02*
X342Y60D01*
X372Y60D02*
X381Y60D01*
X477Y60D02*
X486Y60D01*
X549Y60D02*
X597Y60D01*
X631Y60D02*
X640Y60D01*
X655Y60D02*
X665Y60D01*
X693Y60D02*
X702Y60D01*
X733Y60D02*
X742Y60D01*
X765Y60D02*
X774Y60D01*
X804Y60D02*
X813Y60D01*
X837Y60D02*
X846Y60D01*
X876Y60D02*
X885Y60D01*
X909Y60D02*
X957Y60D01*
X51Y59D02*
X61Y59D01*
X117Y59D02*
X126Y59D01*
X157Y59D02*
X166Y59D01*
X209Y59D02*
X218Y59D01*
X281Y59D02*
X290Y59D01*
X333Y59D02*
X342Y59D01*
X372Y59D02*
X381Y59D01*
X477Y59D02*
X486Y59D01*
X549Y59D02*
X596Y59D01*
X631Y59D02*
X640Y59D01*
X654Y59D02*
X664Y59D01*
X693Y59D02*
X702Y59D01*
X733Y59D02*
X742Y59D01*
X765Y59D02*
X774Y59D01*
X804Y59D02*
X813Y59D01*
X837Y59D02*
X846Y59D01*
X876Y59D02*
X885Y59D01*
X909Y59D02*
X956Y59D01*
X51Y58D02*
X62Y58D01*
X117Y58D02*
X126Y58D01*
X157Y58D02*
X166Y58D01*
X209Y58D02*
X218Y58D01*
X281Y58D02*
X290Y58D01*
X333Y58D02*
X342Y58D01*
X372Y58D02*
X381Y58D01*
X477Y58D02*
X486Y58D01*
X549Y58D02*
X594Y58D01*
X631Y58D02*
X640Y58D01*
X654Y58D02*
X664Y58D01*
X693Y58D02*
X702Y58D01*
X733Y58D02*
X742Y58D01*
X765Y58D02*
X774Y58D01*
X804Y58D02*
X813Y58D01*
X837Y58D02*
X846Y58D01*
X876Y58D02*
X885Y58D01*
X909Y58D02*
X954Y58D01*
X52Y57D02*
X62Y57D01*
X117Y57D02*
X126Y57D01*
X157Y57D02*
X166Y57D01*
X209Y57D02*
X218Y57D01*
X281Y57D02*
X290Y57D01*
X333Y57D02*
X342Y57D01*
X372Y57D02*
X381Y57D01*
X477Y57D02*
X486Y57D01*
X549Y57D02*
X558Y57D01*
X631Y57D02*
X640Y57D01*
X653Y57D02*
X663Y57D01*
X693Y57D02*
X702Y57D01*
X733Y57D02*
X742Y57D01*
X765Y57D02*
X774Y57D01*
X804Y57D02*
X813Y57D01*
X837Y57D02*
X846Y57D01*
X876Y57D02*
X885Y57D01*
X909Y57D02*
X918Y57D01*
X52Y56D02*
X63Y56D01*
X117Y56D02*
X126Y56D01*
X157Y56D02*
X166Y56D01*
X209Y56D02*
X218Y56D01*
X281Y56D02*
X290Y56D01*
X333Y56D02*
X342Y56D01*
X372Y56D02*
X381Y56D01*
X477Y56D02*
X486Y56D01*
X549Y56D02*
X558Y56D01*
X631Y56D02*
X640Y56D01*
X653Y56D02*
X663Y56D01*
X693Y56D02*
X702Y56D01*
X733Y56D02*
X742Y56D01*
X765Y56D02*
X774Y56D01*
X804Y56D02*
X813Y56D01*
X837Y56D02*
X846Y56D01*
X876Y56D02*
X885Y56D01*
X909Y56D02*
X918Y56D01*
X53Y55D02*
X63Y55D01*
X117Y55D02*
X126Y55D01*
X157Y55D02*
X166Y55D01*
X209Y55D02*
X218Y55D01*
X281Y55D02*
X290Y55D01*
X333Y55D02*
X342Y55D01*
X372Y55D02*
X382Y55D01*
X477Y55D02*
X486Y55D01*
X549Y55D02*
X558Y55D01*
X631Y55D02*
X640Y55D01*
X652Y55D02*
X662Y55D01*
X693Y55D02*
X702Y55D01*
X733Y55D02*
X742Y55D01*
X765Y55D02*
X774Y55D01*
X804Y55D02*
X813Y55D01*
X837Y55D02*
X846Y55D01*
X876Y55D02*
X885Y55D01*
X909Y55D02*
X918Y55D01*
X53Y54D02*
X64Y54D01*
X117Y54D02*
X126Y54D01*
X157Y54D02*
X166Y54D01*
X209Y54D02*
X218Y54D01*
X281Y54D02*
X290Y54D01*
X333Y54D02*
X342Y54D01*
X373Y54D02*
X382Y54D01*
X477Y54D02*
X486Y54D01*
X549Y54D02*
X558Y54D01*
X631Y54D02*
X640Y54D01*
X652Y54D02*
X662Y54D01*
X693Y54D02*
X702Y54D01*
X733Y54D02*
X742Y54D01*
X765Y54D02*
X774Y54D01*
X804Y54D02*
X814Y54D01*
X837Y54D02*
X846Y54D01*
X876Y54D02*
X886Y54D01*
X909Y54D02*
X918Y54D01*
X54Y53D02*
X64Y53D01*
X117Y53D02*
X127Y53D01*
X157Y53D02*
X166Y53D01*
X209Y53D02*
X218Y53D01*
X281Y53D02*
X290Y53D01*
X333Y53D02*
X342Y53D01*
X373Y53D02*
X382Y53D01*
X477Y53D02*
X486Y53D01*
X549Y53D02*
X559Y53D01*
X631Y53D02*
X640Y53D01*
X651Y53D02*
X661Y53D01*
X693Y53D02*
X703Y53D01*
X733Y53D02*
X742Y53D01*
X765Y53D02*
X774Y53D01*
X805Y53D02*
X814Y53D01*
X837Y53D02*
X846Y53D01*
X876Y53D02*
X886Y53D01*
X909Y53D02*
X919Y53D01*
X54Y52D02*
X65Y52D01*
X118Y52D02*
X127Y52D01*
X156Y52D02*
X166Y52D01*
X209Y52D02*
X218Y52D01*
X281Y52D02*
X290Y52D01*
X333Y52D02*
X342Y52D01*
X373Y52D02*
X382Y52D01*
X477Y52D02*
X486Y52D01*
X549Y52D02*
X559Y52D01*
X631Y52D02*
X640Y52D01*
X650Y52D02*
X661Y52D01*
X693Y52D02*
X703Y52D01*
X732Y52D02*
X742Y52D01*
X765Y52D02*
X774Y52D01*
X805Y52D02*
X814Y52D01*
X837Y52D02*
X846Y52D01*
X877Y52D02*
X886Y52D01*
X909Y52D02*
X919Y52D01*
X55Y51D02*
X65Y51D01*
X118Y51D02*
X128Y51D01*
X155Y51D02*
X166Y51D01*
X209Y51D02*
X218Y51D01*
X281Y51D02*
X290Y51D01*
X333Y51D02*
X342Y51D01*
X373Y51D02*
X382Y51D01*
X477Y51D02*
X486Y51D01*
X550Y51D02*
X560Y51D01*
X631Y51D02*
X640Y51D01*
X650Y51D02*
X660Y51D01*
X694Y51D02*
X704Y51D01*
X731Y51D02*
X742Y51D01*
X765Y51D02*
X774Y51D01*
X805Y51D02*
X814Y51D01*
X837Y51D02*
X846Y51D01*
X877Y51D02*
X886Y51D01*
X910Y51D02*
X920Y51D01*
X55Y50D02*
X66Y50D01*
X118Y50D02*
X129Y50D01*
X154Y50D02*
X165Y50D01*
X209Y50D02*
X218Y50D01*
X281Y50D02*
X290Y50D01*
X333Y50D02*
X342Y50D01*
X373Y50D02*
X382Y50D01*
X477Y50D02*
X486Y50D01*
X550Y50D02*
X561Y50D01*
X631Y50D02*
X640Y50D01*
X649Y50D02*
X660Y50D01*
X694Y50D02*
X705Y50D01*
X730Y50D02*
X741Y50D01*
X765Y50D02*
X774Y50D01*
X805Y50D02*
X814Y50D01*
X837Y50D02*
X846Y50D01*
X877Y50D02*
X886Y50D01*
X910Y50D02*
X921Y50D01*
X56Y49D02*
X66Y49D01*
X118Y49D02*
X130Y49D01*
X153Y49D02*
X165Y49D01*
X209Y49D02*
X218Y49D01*
X281Y49D02*
X290Y49D01*
X333Y49D02*
X342Y49D01*
X373Y49D02*
X382Y49D01*
X477Y49D02*
X486Y49D01*
X550Y49D02*
X562Y49D01*
X631Y49D02*
X640Y49D01*
X649Y49D02*
X659Y49D01*
X694Y49D02*
X706Y49D01*
X729Y49D02*
X741Y49D01*
X765Y49D02*
X774Y49D01*
X805Y49D02*
X814Y49D01*
X837Y49D02*
X846Y49D01*
X877Y49D02*
X886Y49D01*
X910Y49D02*
X922Y49D01*
X56Y48D02*
X67Y48D01*
X119Y48D02*
X132Y48D01*
X152Y48D02*
X164Y48D01*
X209Y48D02*
X218Y48D01*
X281Y48D02*
X290Y48D01*
X333Y48D02*
X342Y48D01*
X373Y48D02*
X382Y48D01*
X477Y48D02*
X486Y48D01*
X551Y48D02*
X564Y48D01*
X631Y48D02*
X640Y48D01*
X648Y48D02*
X659Y48D01*
X695Y48D02*
X708Y48D01*
X728Y48D02*
X740Y48D01*
X765Y48D02*
X774Y48D01*
X805Y48D02*
X814Y48D01*
X837Y48D02*
X846Y48D01*
X877Y48D02*
X886Y48D01*
X911Y48D02*
X924Y48D01*
X57Y47D02*
X69Y47D01*
X119Y47D02*
X133Y47D01*
X150Y47D02*
X164Y47D01*
X209Y47D02*
X218Y47D01*
X281Y47D02*
X290Y47D01*
X333Y47D02*
X342Y47D01*
X373Y47D02*
X382Y47D01*
X477Y47D02*
X486Y47D01*
X551Y47D02*
X565Y47D01*
X631Y47D02*
X640Y47D01*
X646Y47D02*
X658Y47D01*
X695Y47D02*
X709Y47D01*
X726Y47D02*
X740Y47D01*
X765Y47D02*
X774Y47D01*
X805Y47D02*
X814Y47D01*
X837Y47D02*
X846Y47D01*
X877Y47D02*
X886Y47D01*
X911Y47D02*
X925Y47D01*
X57Y46D02*
X91Y46D01*
X120Y46D02*
X163Y46D01*
X197Y46D02*
X230Y46D01*
X269Y46D02*
X302Y46D01*
X333Y46D02*
X342Y46D01*
X373Y46D02*
X382Y46D01*
X477Y46D02*
X523Y46D01*
X552Y46D02*
X595Y46D01*
X624Y46D02*
X658Y46D01*
X696Y46D02*
X739Y46D01*
X765Y46D02*
X774Y46D01*
X805Y46D02*
X814Y46D01*
X837Y46D02*
X846Y46D01*
X877Y46D02*
X886Y46D01*
X912Y46D02*
X955Y46D01*
X58Y45D02*
X93Y45D01*
X121Y45D02*
X162Y45D01*
X196Y45D02*
X232Y45D01*
X268Y45D02*
X304Y45D01*
X333Y45D02*
X342Y45D01*
X373Y45D02*
X382Y45D01*
X477Y45D02*
X525Y45D01*
X553Y45D02*
X597Y45D01*
X623Y45D02*
X657Y45D01*
X697Y45D02*
X738Y45D01*
X765Y45D02*
X774Y45D01*
X805Y45D02*
X814Y45D01*
X837Y45D02*
X846Y45D01*
X877Y45D02*
X886Y45D01*
X913Y45D02*
X957Y45D01*
X58Y44D02*
X93Y44D01*
X122Y44D02*
X161Y44D01*
X195Y44D02*
X232Y44D01*
X267Y44D02*
X304Y44D01*
X333Y44D02*
X342Y44D01*
X373Y44D02*
X382Y44D01*
X477Y44D02*
X525Y44D01*
X554Y44D02*
X597Y44D01*
X622Y44D02*
X657Y44D01*
X698Y44D02*
X737Y44D01*
X765Y44D02*
X774Y44D01*
X805Y44D02*
X814Y44D01*
X837Y44D02*
X846Y44D01*
X877Y44D02*
X886Y44D01*
X914Y44D02*
X957Y44D01*
X59Y43D02*
X94Y43D01*
X123Y43D02*
X160Y43D01*
X194Y43D02*
X233Y43D01*
X266Y43D02*
X305Y43D01*
X333Y43D02*
X342Y43D01*
X373Y43D02*
X382Y43D01*
X477Y43D02*
X526Y43D01*
X555Y43D02*
X598Y43D01*
X621Y43D02*
X656Y43D01*
X699Y43D02*
X736Y43D01*
X765Y43D02*
X774Y43D01*
X805Y43D02*
X814Y43D01*
X837Y43D02*
X846Y43D01*
X877Y43D02*
X886Y43D01*
X915Y43D02*
X958Y43D01*
X60Y42D02*
X94Y42D01*
X124Y42D02*
X159Y42D01*
X194Y42D02*
X233Y42D01*
X266Y42D02*
X305Y42D01*
X333Y42D02*
X342Y42D01*
X373Y42D02*
X382Y42D01*
X477Y42D02*
X526Y42D01*
X556Y42D02*
X598Y42D01*
X621Y42D02*
X656Y42D01*
X700Y42D02*
X735Y42D01*
X765Y42D02*
X774Y42D01*
X805Y42D02*
X814Y42D01*
X837Y42D02*
X846Y42D01*
X877Y42D02*
X886Y42D01*
X916Y42D02*
X958Y42D01*
X61Y41D02*
X94Y41D01*
X125Y41D02*
X158Y41D01*
X194Y41D02*
X233Y41D01*
X266Y41D02*
X305Y41D01*
X333Y41D02*
X342Y41D01*
X373Y41D02*
X382Y41D01*
X477Y41D02*
X526Y41D01*
X557Y41D02*
X598Y41D01*
X621Y41D02*
X655Y41D01*
X701Y41D02*
X734Y41D01*
X765Y41D02*
X774Y41D01*
X805Y41D02*
X814Y41D01*
X837Y41D02*
X846Y41D01*
X877Y41D02*
X886Y41D01*
X917Y41D02*
X958Y41D01*
X62Y40D02*
X94Y40D01*
X126Y40D02*
X157Y40D01*
X195Y40D02*
X233Y40D01*
X267Y40D02*
X305Y40D01*
X334Y40D02*
X342Y40D01*
X373Y40D02*
X382Y40D01*
X477Y40D02*
X526Y40D01*
X558Y40D02*
X598Y40D01*
X622Y40D02*
X654Y40D01*
X702Y40D02*
X733Y40D01*
X766Y40D02*
X774Y40D01*
X805Y40D02*
X814Y40D01*
X838Y40D02*
X846Y40D01*
X877Y40D02*
X886Y40D01*
X918Y40D02*
X958Y40D01*
X63Y39D02*
X93Y39D01*
X128Y39D02*
X155Y39D01*
X195Y39D02*
X232Y39D01*
X267Y39D02*
X304Y39D01*
X334Y39D02*
X341Y39D01*
X374Y39D02*
X381Y39D01*
X477Y39D02*
X525Y39D01*
X560Y39D02*
X597Y39D01*
X622Y39D02*
X652Y39D01*
X704Y39D02*
X731Y39D01*
X766Y39D02*
X773Y39D01*
X806Y39D02*
X813Y39D01*
X838Y39D02*
X845Y39D01*
X878Y39D02*
X885Y39D01*
X920Y39D02*
X957Y39D01*
X65Y38D02*
X92Y38D01*
X130Y38D02*
X154Y38D01*
X196Y38D02*
X231Y38D01*
X268Y38D02*
X303Y38D01*
X335Y38D02*
X341Y38D01*
X375Y38D02*
X380Y38D01*
X477Y38D02*
X524Y38D01*
X562Y38D02*
X596Y38D01*
X623Y38D02*
X650Y38D01*
X706Y38D02*
X730Y38D01*
X767Y38D02*
X773Y38D01*
X807Y38D02*
X812Y38D01*
X839Y38D02*
X845Y38D01*
X879Y38D02*
X884Y38D01*
X922Y38D02*
X956Y38D01*
X68Y37D02*
X91Y37D01*
X133Y37D02*
X151Y37D01*
X197Y37D02*
X230Y37D01*
X269Y37D02*
X302Y37D01*
X336Y37D02*
X339Y37D01*
X376Y37D02*
X379Y37D01*
X477Y37D02*
X523Y37D01*
X564Y37D02*
X595Y37D01*
X624Y37D02*
X647Y37D01*
X709Y37D02*
X727Y37D01*
X768Y37D02*
X771Y37D01*
X808Y37D02*
X811Y37D01*
X840Y37D02*
X843Y37D01*
X880Y37D02*
X883Y37D01*
X924Y37D02*
X955Y37D01*
D02*
G04 End of Copper1*
M02*